<?xml version="1.0" encoding="UTF-8"?>
<svg id="Capa_1" xmlns="http://www.w3.org/2000/svg" version="1.1" viewBox="0 0 1420 700">
  <!-- Generator: Adobe Illustrator 29.6.1, SVG Export Plug-In . SVG Version: 2.1.1 Build 9)  -->
  <defs>
    <style>
      .st0 {
        fill: #d1bc95;
      }

      .st1 {
        fill: #b78844;
      }
    </style>
  </defs>
  <path class="st1" d="M683.73,327.98v-10.79c4.61.24,12-1.47,13.54-6.43.94-3.03,1.3-15.66,1.44-20.06.3-9.03-.61-18.89-.76-28.1s1.21-21.36-.46-30.92c-1.29-7.34-7.34-7.67-13.71-8.4l-.04-10.74c1.61.8,2.94,1.1,4.79,1.14,27.53.69,65.95-5.44,90.15,8.01,25.09,13.94,29.76,48.72,19.59,73.56-17.62,43.06-77.73,30.77-114.55,32.72h.01ZM747.91,225.49c-6.69-1.04-15.66.77-22.66,0l-1.61,1.61v84.15c0,4.81,18.47,4.07,22,3.66,39.26-4.56,39.04-83.68,2.27-89.42h0Z"/>
  <path class="st1" d="M529.09,417.12c-2.86,2.59-7.37,3.89-10.41,6.3,11.83,4.43,23.3,10.76,24.8,24.82,3.14,29.36-25.02,36.1-47.96,37.27-18.24.93-37.29-.79-55.6-.04v-10.79c5.9.21,10.66-1.63,12.47-7.5,3.11-10.1,2.7-58.46,1.43-70.57-1.1-10.44-3.47-12.89-13.74-14.84l-.14-9.57c8.19-.84,16.24,1.13,24.34,1.11,19.86-.03,38.7-6.53,58.03,3.36,14.71,7.53,19.19,29.26,6.8,40.46h-.02ZM478.76,420.74c19.77,4.13,38.09-1.43,31.33-25.4-1.41-5.01-7.04-11.27-12.46-11.27h-18.87v36.67h0ZM480.37,433.68l-1.61,1.61v28.04c0,5.36,6.23,9.66,11.33,10.24,17.47,2.01,28.72-5.87,26.44-24.3-.99-8.01-11.3-15.61-18.9-15.61h-17.26v.02Z"/>
  <path class="st1" d="M766.77,372.19c2.2,5.89,6.61,11.94,10.37,17.14,15.19,21.07,31.89,41.16,47.87,61.6-1.14-18.96,2.26-40.69-1.74-59.19-2.09-9.61-9.46-8.44-17.66-9.86v-9.7h46.39l-.47,9.77c-16.34,2.27-10.86,22.77-11.34,35.03-.09,2.27-1,4.29-1.07,6.47-.61,20.22.33,40.66-.06,60.92-5.3-.43-15.73,3.17-20.03.07-18.52-26.4-39.17-50.73-57.39-77.42-.66-.97.17-2-2.4-1.4.19,8.44-.26,16.94-.06,25.39.2,8.44.1,26.2,1.6,33.99,1.7,8.77,9.17,8.3,16.73,9.7l.06,10.74h-46.39l.04-10.74c8.93-.43,12.8-3.69,13.86-12.57,1.41-11.97,1.64-62.7-1.2-72.99-1.74-6.29-7.44-5.46-12.56-7.4l-.14-9.57h35.6-.01v.02Z"/>
  <path class="st1" d="M1298.58,485.47v-10.77c12.96.2,14.34-5.37,15.14-16.69,1.14-16.1.96-39.99,0-56.19-.76-12.74-.7-18.37-15.01-20.04l-.14-9.57,29.72,1.13c19.8-2.74,56.79-5.87,66.83,16.14,8.64,18.94-3.03,34.82-20.02,42.67,7.54,10.37,13.3,28.62,21.64,37.69,3.87,4.21,7.36,4.27,12.47,5.87l.47,9.79c-8.14-1.84-25.36,4.8-31.9.07-5.24-3.79-16.8-38.4-21.99-45.67-.47-.64-2.21-1.86-2.74-1.86h-15.64c.26,5.54-.33,11.21-.04,16.76.17,3.34.73,10.86,1.36,13.74,1.14,5.3,6.93,6.4,11.63,6.17v10.79h-51.77v-.03h0ZM1338.5,423.98c16.43,2.97,33.5,3.66,33.5-17.8,0-19.83-14.47-25.07-31.72-21.94l-1.79,1.46v38.29h.01Z"/>
  <path class="st1" d="M441.02,327.98l.04-10.74c4.64-.17,9.53-1.59,12.3-5.5l36.36-97.95,28.02.49c7.66,21.1,14.53,42.59,22.52,63.56,2.24,5.89,12.47,34.07,15.19,36.6,2.33,2.17,6.5,3.03,9.64,2.76v10.79h-52.86l.47-9.79c1.46-2.03,11.69.14,12.5-5.91.71-5.31-5.8-15.34-6.51-20.99-13.19,2.33-26.83-.93-40.32-.06l-5.03,21.99c4.07,2.84,9.1,4.4,14.09,3.96v10.79h-46.41ZM482,279.43h33.44l-17.79-46.39-15.66,46.39h.01Z"/>
  <path class="st1" d="M909.18,327.98h-96v-10.79c7.74-.21,13.3-1.7,14.07-10.2,2.11-23.22-1.6-49.73-.14-73.3-1.13-7.99-6.73-9.39-13.81-10.44l-.1-10.69h94.92c.44,11.2-1.43,22.33-3.36,33.32l-11.04.17c-3.54-3.44-2.49-20.54-7.71-20.54h-33.97v39.92l36.67-1.09v16.19l-36.67-2.16v26.43c0,2.74,2.23,8.8,5.33,9.77,4.46,1.4,22.54,1.09,27.32.21,9.29-1.67,9.64-12.64,12.6-19.77l11.93-.47v33.44h-.04Z"/>
  <path class="st1" d="M1166.98,485.47l.11-10.69c7.19-.69,9.6-3.37,12.7-9.41l33.7-93.05,27.4.93c7.19,19.83,13.81,39.9,21.29,59.62,2.54,6.71,13.41,38.07,17.74,40.5,3.06,1.73,9.37.6,10.64,2.34l.49,9.19-53.96.56v-10.8c7.91.26,13.47.73,11.61-8.91-.27-1.43-5.09-14.27-5.64-14.84-2.71-2.77-34.72-.04-40.93-1.11-1,5.8-5.37,15.29-3.66,20.89,1.5,4.9,10.9,3.07,12.27,4.99l.47,9.79h-44.23v.03-.03ZM1239.25,438l-18.33-46.39-15.11,46.39h33.44Z"/>
  <path class="st1" d="M959.87,485.47h-96l.11-10.69c7.84-1.54,13.11-.97,13.96-10.3,2.13-23.24-1.64-49.75-.11-73.35-1.37-6.84-7.73-8.49-13.86-9.33l-.11-9.61c31.36,1.26,62.59,1.13,93.86-1.07-.16,3.74.23,7.57-.01,11.31-.21,3.27-2.27,20.1-4.03,21.04-2.19,1.17-7.46,1.76-9.53.07-4.36-3.1-2.17-19.49-7.47-19.49h-33.97v39.92l35.66-1.7c1.61,1.17,1.96,16.06-.69,16.69-11.19-2.03-22.54-2.27-33.9-2.03v29.66c0,.27,2.37,4.47,2.73,4.83,3.91,3.81,27.07,2.77,32.19-.11,5.71-3.23,6.83-13.27,8.34-19.16,4.1.26,9.79-1.54,12.84,1.51v31.82h0Z"/>
  <path class="st1" d="M715,485.47h-94.93v-10.79c6.5.11,13.37-1.86,13.91-9.27-1.44-23.22,2.26-49.37.14-72.23-.8-8.64-6.2-10.19-13.97-11.37l-.11-9.61,50.22,1.13,43.64-2.2-3.24,32.36c-3.17-.36-7.27.59-10.26.03-5.16-.97-2.91-16.16-7.54-19.43h-33.97v39.92l33-2.1c.9-.24,2.59,1.1,2.59,1.57v15.64l-35.6-2.16v26.43c0,4.47,3,8.73,7.47,9.79,4.96,1.17,25.56.57,29.14-2.3,4.7-3.76,5.49-16.93,7.57-18.32l11.91-.5v33.44l.03-.03h0Z"/>
  <path class="st1" d="M1050.47,404.55h-14.01c1.66-18.56-3.6-23.72-22.12-21.57-13.91,1.61-18.23,17.37-7.54,25.89,15.86,12.64,47.16,13.77,50.96,39.66,5.8,39.54-49.86,46.36-76.3,32.07-7.71-4.17-4.43-4.67-4.33-10.8.11-6.13.19-12.26.44-18.34,18.32-11.8,12.4,13.26,19.49,18.93,7.31,5.87,28.2,6.74,33.84-2.89,13.37-22.82-25.06-28.16-37.92-36.19-22.29-13.91-21.04-42.53,1.09-55.66,15.24-9.04,46.53-8.73,59.39,4.76l-2.99,24.13h0Z"/>
  <path class="st1" d="M1171.29,372.19v32.36l-15.04-.07c-.96-4.33-1.96-17.86-5.7-19.64-2.47-1.19-16.33-1.51-17.62.24l1.61,84.8c3.2,3.74,8.3,4.43,12.96,4.83l.06,10.74h-53.93l.11-10.69c3.34-1,7.74-.74,10.66-2.81,1.39-.99,4.33-6.31,4.33-7.53v-80.36h-16.72c-6.46,0-8.5,22.12-10.96,22.7-2.97-.6-12.09,1.47-13.16-1.81l.93-32.76h102.49-.03.01Z"/>
  <path class="st1" d="M980.37,213.63v9.7c-7.36.07-12.79,1.21-13.93,9.27,1.47,23.93-2.3,50.82-.14,74.39.21,2.4.53,5.53,2.67,7.04,2.36,1.67,22.84,1.44,26.53.49,7.99-2.07,10.41-17.54,14.17-24.12l11.69.9-1.57,35.64-92.28,1.03v-10.79c6.79-.04,12.01-1.27,13.54-8.57,2.1-10.03,1.94-63.95.39-74.93-1.13-7.99-6.73-9.39-13.81-10.44l-.1-9.6h52.86-.02Z"/>
  <path class="st1" d="M633.02,213.63l-.1,9.6c-9.04,1.46-11.7,2.06-12.7,11.57-1.77,16.97-1.29,47.24-.19,64.63.61,9.7.6,18.77,12.99,17.76v10.79c-17.32-1.59-34.4-.26-51.77,0v-10.79c6.26.19,14.11-1.77,14.1-9.11-2.39-23.1,3-52.02-.17-74.4-1.13-7.99-6.73-9.39-13.81-10.44l-.1-9.6h51.77-.02Z"/>
  <path class="st1" d="M554.28,485.47l.04-10.74c5.4-.26,11.86-1.99,12.83-8.2-1.53-23.96,2.26-50.82.11-74.42-.83-9.1-5.46-7.97-12.86-10.34l-.14-9.57h50.72l-.14,9.57c-10.81,2.24-12.09,3.8-12.86,14.66-1.14,16.34-1.94,52.4.14,67.92,1.06,7.83,5.26,10.03,12.8,10.39l.04,10.74h-50.7.02Z"/>
  <path class="st0" d="M235.53,451.29c-14.4,8.53-30.39,16.93-45.32,24.54-8.24,4.21-16.53,8.59-25.33,11.48-.21.89.33.9.78,1.32,22.58,20.63,61.19,19.43,81.52-3.66,13.78-15.65,16.13-37.43,19.45-57.22-9.13,9.65-19.73,16.79-31.09,23.53h-.01Z"/>
  <path class="st0" d="M203.33,301.62h-17.35c4.4,8.97,14.88,11.96,17.35,0Z"/>
  <path class="st0" d="M138.51,282.52c23.23-32.96,61.03-52.25,98.47-64.71l16.98-3.41c-3.45-2.02-6.54-4.64-10-6.65-47-27.36-102.12-1.5-114.41,50.34-3.4,14.32-2.88,28.5-2.19,43.06l11.14-18.62h.01Z"/>
  <path class="st0" d="M306.34,245.27c-27.21-13.7-56.49-11.13-83.64.94-53.61,23.85-112.26,76.1-84.49,140.92l4.39,8.74c-14.04-10.82-22.58-27.36-27.66-44.08-9.89-32.44-14.27-70.48-4.43-103.37.59-1.97,1.83-4.24,2.29-6.16.16-.68.04-.8-.64-.64-3.89.94-10.63,4.38-14.19,6.45-36.49,21.29-45.9,67.54-24.26,103.2,14.7,24.24,47.6,44.79,73.36,55.6,2.65,1.11,6.25,1.75,8.68,3.04,2.86,1.51,7.72,7.01,10.79,9.37,5.23,4.05,10.77,7.19,16.78,9.95l13.44,5.07c-30.11,4.62-60.03-6.56-85.49-21.66-16.61-9.84-33.32-21.99-45.58-36.96-9.37,41.33,16.99,84.36,58.84,92.61,29.68,5.85,46.02-7.12,70.34-19.71,17.11-8.86,34.93-16.78,51.27-27.04,33.92-21.31,44.09-56.1,39.66-94.81-.72-6.23-2.35-12.35-2.99-18.57,16.16,14.8,23.65,35.07,22.28,56.96-1.2,19.11-10.09,37.13-14.96,55.37-3.29,12.31-4.88,24.38-7.3,36.78-.19.99-3.03,11.74-2.34,11.72,37.39-7.68,62.77-45.13,58.84-82.77-5.13-49.16-51.38-94.28-95.67-111.59l-29.52-10.56c44.07-19.31,82.58,10.44,109.25,42.91,7.07,8.61,14.11,17.99,19.24,27.89.73.56,2.35-5.59,2.49-6.18,7.96-32.86-8.82-68.4-38.76-83.47v.03l-.02.02ZM237.09,287.09c-.35,3.58-2.43,6.53-4.15,9.52,13.02,16.24,22.4,35.71,26.89,56.12,3.06,13.93,4.41,29.1-.72,42.68-11.65-4.58-21.41-14.06-26.13-25.68l-2-6.68c-.86,17.15,10.61,32.01,25.78,38.68l-7.25,8.95c-16.89-3.01-35.33-13.03-43.11-28.94-3.05-6.24-3.72-11.97-3.1-18.92.18-2.01,1.11-3.92,1.16-5.86-7.43,11.65-5.3,26.39,2.65,37.2,8.64,11.72,22.7,18.01,36.49,21.42l-12,6.54c-22.79-3.59-52.81-23.38-50.83-49.44l3.51-13.84c-23.56,30.63,9.5,60.68,38.68,67.53l-10.89,4.34c-5.87,1.72-7.1,2.18-12.87-.04-29.02-11.14-59.45-39.96-41.65-73.24,5.63-10.53,14.32-16.24,24.93-21.03,1.29-.58,5.82-1.84,6.27-2.17,1.46-1.06-1.33-7.35-2.6-8.68-6.05-6.29-20.81-6.24-28.14-2.36-2.35,1.24-4.02,3.39-6.32,4.7-2.71-8.96,1.21-19.6,9.74-23.78,4.49-2.2,8.86-2.1,13.7-1.54-.76-6.81,3.13-11.75,9.47-13.74,1.27-.4,7.08-1.73,8.11-1.73h44.38Z"/>
  <path class="st0" d="M204.55,155.77c-107.27,0-194.23,86.96-194.23,194.23s86.96,194.23,194.23,194.23,194.23-86.96,194.23-194.23-86.96-194.23-194.23-194.23ZM269.07,491.63c-30.33,44.9-97.17,42.66-128.59.16-3.09-1.2-6.41-.4-9.59-.73-68.03-6.99-104.85-76.23-80.95-138.56-27.32-58.17,10.19-128.37,74.52-134.91,36.59-56.19,122.7-55.85,159.99-.6,33.16,3.65,62.08,25.47,75.59,55.71,12.26,27.45,10.84,61.7-5.13,87.37,21.8,61.08-19.82,129.21-85.84,131.56h0Z"/>
</svg>