<?xml version="1.0" encoding="UTF-8"?>
<svg id="Capa_1" xmlns="http://www.w3.org/2000/svg" version="1.1" viewBox="0 0 710 700">
  <!-- Generator: Adobe Illustrator 29.6.1, SVG Export Plug-In . SVG Version: 2.1.1 Build 9)  -->
  <defs>
    <style>
      .st0 {
        fill: #f9eedb;
      }

      .st1 {
        fill: #f7eed8;
      }

      .st2 {
        fill: #1b3928;
      }

      .st3 {
        fill: #881a26;
      }

      .st4 {
        fill: #f8eeda;
      }

      .st5 {
        fill: #faeedb;
      }
    </style>
  </defs>
  <g>
    <path class="st1" d="M328.95,558.46v-7.55c3.23.17,8.4-1.03,9.48-4.5.66-2.12.91-10.96,1.01-14.04.21-6.32-.43-13.22-.53-19.67s.85-14.95-.32-21.64c-.9-5.14-5.14-5.37-9.6-5.88l-.03-7.52c1.13.56,2.06.77,3.35.8,19.27.48,46.16-3.81,63.1,5.61,17.56,9.76,20.83,34.1,13.71,51.49-12.33,30.14-54.41,21.54-80.18,22.9ZM373.88,486.72c-4.68-.73-10.96.54-15.86,0l-1.13,1.13v58.9c0,3.37,12.93,2.85,15.4,2.56,27.48-3.19,27.33-58.57,1.59-62.59Z"/>
    <path class="st1" d="M78.01,620.86c-2,1.81-5.16,2.72-7.29,4.41,8.28,3.1,16.31,7.53,17.36,17.37,2.2,20.55-17.51,25.27-33.57,26.09-12.77.65-26.1-.55-38.92-.03v-7.55c4.13.15,7.46-1.14,8.73-5.25,2.18-7.07,1.89-40.92,1-49.4-.77-7.31-2.43-9.02-9.62-10.39l-.1-6.7c5.73-.59,11.37.79,17.04.78,13.9-.02,27.09-4.57,40.62,2.35,10.3,5.27,13.43,20.48,4.76,28.32ZM42.78,623.39c13.84,2.89,26.66-1,21.93-17.78-.99-3.51-4.93-7.89-8.72-7.89h-13.21v25.67ZM43.91,632.45l-1.13,1.13v19.63c0,3.75,4.36,6.76,7.93,7.17,12.23,1.41,20.1-4.11,18.51-17.01-.69-5.61-7.91-10.93-13.23-10.93h-12.08Z"/>
    <path class="st1" d="M244.38,589.41c1.54,4.12,4.63,8.36,7.26,12,10.63,14.75,22.32,28.81,33.51,43.12-.8-13.27,1.58-28.48-1.22-41.43-1.46-6.73-6.62-5.91-12.36-6.9v-6.79h32.47l-.33,6.84c-11.44,1.59-7.6,15.94-7.94,24.52-.06,1.59-.7,3-.75,4.53-.43,14.15.23,28.46-.04,42.64-3.71-.3-11.01,2.22-14.02.05-12.96-18.48-27.42-35.51-40.17-54.19-.46-.68.12-1.4-1.68-.98.13,5.91-.18,11.86-.04,17.77s.07,18.34,1.12,23.79c1.19,6.14,6.42,5.81,11.71,6.79l.04,7.52h-32.47l.03-7.52c6.25-.3,8.96-2.58,9.7-8.8.99-8.38,1.15-43.89-.84-51.09-1.22-4.4-5.21-3.82-8.79-5.18l-.1-6.7h24.92Z"/>
    <path class="st1" d="M616.63,668.7v-7.54c9.07.14,10.04-3.76,10.6-11.68.8-11.27.67-27.99,0-39.33-.53-8.92-.49-12.86-10.51-14.03l-.1-6.7,20.8.79c13.86-1.92,39.75-4.11,46.78,11.3,6.05,13.26-2.12,24.37-14.01,29.87,5.28,7.26,9.31,20.03,15.15,26.38,2.71,2.95,5.15,2.99,8.73,4.11l.33,6.85c-5.7-1.29-17.75,3.36-22.33.05-3.67-2.65-11.76-26.88-15.39-31.97-.33-.45-1.55-1.3-1.92-1.3h-10.95c.18,3.88-.23,7.85-.03,11.73.12,2.34.51,7.6.95,9.62.8,3.71,4.85,4.48,8.14,4.32v7.55s-36.24,0-36.24,0ZM644.57,625.66c11.5,2.08,23.45,2.56,23.45-12.46,0-13.88-10.13-17.55-22.2-15.36l-1.25,1.02v26.8Z"/>
    <path class="st1" d="M159.06,558.46l.03-7.52c3.25-.12,6.67-1.11,8.61-3.85l25.45-68.56,19.61.34c5.36,14.77,10.17,29.81,15.76,44.49,1.57,4.12,8.73,23.85,10.63,25.62,1.63,1.52,4.55,2.12,6.75,1.93v7.55s-37,0-37,0l.33-6.85c1.02-1.42,8.18.1,8.75-4.14.5-3.72-4.06-10.74-4.56-14.69-9.23,1.63-18.78-.65-28.22-.04l-3.52,15.39c2.85,1.99,6.37,3.08,9.86,2.77v7.55h-32.47ZM187.75,524.48h23.41l-12.45-32.47-10.96,32.47Z"/>
    <path class="st1" d="M486.76,558.46h-67.2s0-7.55,0-7.55c5.42-.15,9.31-1.19,9.85-7.14,1.48-16.25-1.12-34.81-.1-51.31-.79-5.59-4.71-6.57-9.67-7.31l-.07-7.48h66.44c.31,7.84-1,15.63-2.35,23.32l-7.73.12c-2.48-2.41-1.74-14.38-5.4-14.38h-23.78v27.94l25.67-.76v11.33l-25.67-1.51v18.5c0,1.92,1.56,6.16,3.73,6.84,3.12.98,15.78.76,19.12.15,6.5-1.17,6.75-8.85,8.82-13.84l8.35-.33v23.41Z"/>
    <path class="st1" d="M524.51,668.7l.08-7.48c5.03-.48,6.72-2.36,8.89-6.59l23.59-65.13,19.18.65c5.03,13.88,9.67,27.93,14.9,41.73,1.78,4.7,9.39,26.65,12.42,28.35,2.14,1.21,6.56.42,7.45,1.64l.34,6.43-37.77.39v-7.56c5.54.18,9.43.51,8.13-6.24-.19-1-3.56-9.99-3.95-10.39-1.9-1.94-24.3-.03-28.65-.78-.7,4.06-3.76,10.7-2.56,14.62,1.05,3.43,7.63,2.15,8.59,3.49l.33,6.85h-30.96ZM575.1,635.47l-12.83-32.47-10.58,32.47h23.41Z"/>
    <path class="st1" d="M379.54,668.7h-67.2s.08-7.48.08-7.48c5.49-1.08,9.18-.68,9.77-7.21,1.49-16.27-1.15-34.82-.08-51.34-.96-4.79-5.41-5.94-9.7-6.53l-.08-6.73c21.95.88,43.81.79,65.7-.75-.11,2.62.16,5.3-.01,7.92-.15,2.29-1.59,14.07-2.82,14.73-1.53.82-5.22,1.23-6.67.05-3.05-2.17-1.52-13.64-5.23-13.64h-23.78v27.94l24.96-1.19c1.13.82,1.37,11.24-.48,11.68-7.83-1.42-15.78-1.59-23.73-1.42v20.76c0,.19,1.66,3.13,1.91,3.38,2.74,2.67,18.95,1.94,22.53-.08,4-2.26,4.78-9.29,5.84-13.41,2.87.18,6.85-1.08,8.99,1.06v22.27Z"/>
    <path class="st1" d="M208.14,668.7h-66.45s0-7.55,0-7.55c4.55.08,9.36-1.3,9.74-6.49-1.01-16.25,1.58-34.56.1-50.56-.56-6.05-4.34-7.13-9.78-7.96l-.08-6.73,35.15.79,30.55-1.54-2.27,22.65c-2.22-.25-5.09.41-7.18.02-3.61-.68-2.04-11.31-5.28-13.6h-23.78v27.94l23.1-1.47c.63-.17,1.81.77,1.81,1.1v10.95l-24.92-1.51v18.5c0,3.13,2.1,6.11,5.23,6.85,3.47.82,17.89.4,20.4-1.61,3.29-2.63,3.84-11.85,5.3-12.82l8.34-.35v23.41Z"/>
    <path class="st1" d="M442.96,612.06h-9.81c1.16-12.99-2.52-16.6-15.48-15.1-9.74,1.13-12.76,12.16-5.28,18.12,11.1,8.85,33.01,9.64,35.67,27.76,4.06,27.68-34.9,32.45-53.41,22.45-5.4-2.92-3.1-3.27-3.03-7.56.08-4.29.13-8.58.31-12.84,12.82-8.26,8.68,9.28,13.64,13.25,5.12,4.11,19.74,4.72,23.69-2.02,9.36-15.97-17.54-19.71-26.54-25.33-15.6-9.74-14.73-29.77.76-38.96,10.67-6.33,32.57-6.11,41.57,3.33l-2.09,16.89Z"/>
    <path class="st1" d="M527.53,589.41v22.65l-10.53-.05c-.67-3.03-1.37-12.5-3.99-13.75-1.73-.83-11.43-1.06-12.33.17l1.13,59.36c2.24,2.62,5.81,3.1,9.07,3.38l.04,7.52h-37.75l.08-7.48c2.34-.7,5.42-.52,7.46-1.97.97-.69,3.03-4.42,3.03-5.27v-56.25h-11.7c-4.52,0-5.95,15.48-7.67,15.89-2.08-.42-8.46,1.03-9.21-1.27l.65-22.93h71.74Z"/>
    <path class="st1" d="M536.59,478.42v6.79c-5.15.05-8.95.85-9.75,6.49,1.03,16.75-1.61,35.57-.1,52.07.15,1.68.37,3.87,1.87,4.93,1.65,1.17,15.99,1.01,18.57.34,5.59-1.45,7.29-12.28,9.92-16.88l8.18.63-1.1,24.95-64.59.72v-7.55c4.75-.03,8.41-.89,9.48-6,1.47-7.02,1.36-44.76.27-52.45-.79-5.59-4.71-6.57-9.67-7.31l-.07-6.72h37Z"/>
    <path class="st1" d="M293.46,478.42l-.07,6.72c-6.33,1.02-8.19,1.44-8.89,8.1-1.24,11.88-.9,33.07-.13,45.24.43,6.79.42,13.14,9.09,12.43v7.55c-12.12-1.11-24.08-.18-36.24,0v-7.55c4.38.13,9.88-1.24,9.87-6.38-1.67-16.17,2.1-36.41-.12-52.08-.79-5.59-4.71-6.57-9.67-7.31l-.07-6.72h36.24Z"/>
    <path class="st1" d="M95.64,668.7l.03-7.52c3.78-.18,8.3-1.39,8.98-5.74-1.07-16.77,1.58-35.57.08-52.09-.58-6.37-3.82-5.58-9-7.24l-.1-6.7h35.5s-.1,6.7-.1,6.7c-7.57,1.57-8.46,2.66-9,10.26-.8,11.44-1.36,36.68.1,47.54.74,5.48,3.68,7.02,8.96,7.27l.03,7.52h-35.49Z"/>
  </g>
  <path class="st3" d="M344.69,167.23c-6.55,2.05-10.55,7.16-9.77,14.18-5.01-.58-9.51-.68-14.14,1.59-8.81,4.32-12.85,15.29-10.05,24.54,2.36-1.35,4.09-3.57,6.52-4.85,7.56-4,22.8-4.06,29.04,2.44,1.31,1.36,4.18,7.87,2.68,8.96-.47.34-5.14,1.64-6.47,2.24-10.95,4.94-19.92,10.83-25.73,21.7-18.36,34.35,13.05,64.1,42.99,75.59,5.95,2.29,7.22,1.82,13.28.04l11.24-4.48c-30.12-7.06-64.24-38.09-39.92-69.69l-3.62,14.28c-2.04,26.9,28.94,47.32,52.46,51.03l12.38-6.75c-14.24-3.52-28.75-10.01-37.66-22.11-8.22-11.15-10.41-26.37-2.74-38.39-.05,2.01-1.02,3.98-1.2,6.05-.64,7.18.05,13.09,3.2,19.53,8.03,16.41,27.06,26.76,44.49,29.87l7.48-9.24c-15.66-6.88-27.5-22.22-26.61-39.92l2.06,6.89c4.87,12,14.94,21.78,26.97,26.5,5.29-14.02,3.9-29.67.74-44.05-4.63-21.07-14.31-41.16-27.75-57.92,1.77-3.1,3.91-6.14,4.28-9.83h-45.73c-1.06,0-7.06,1.38-8.37,1.79ZM346.05,180.44h17.91c-2.55,12.34-13.37,9.26-17.91,0Z"/>
  <path class="st2" d="M525.68,150.59c-13.94-31.21-43.78-53.74-78.01-57.5-38.49-57.02-127.36-57.37-165.12.62-66.39,6.75-105.11,79.2-76.91,139.24-24.66,64.33,13.34,135.79,83.55,143,3.27.34,6.71-.5,9.9.75,32.43,43.87,101.42,46.18,132.71-.16,68.13-2.43,111.09-72.74,88.59-135.78,16.48-26.49,17.94-61.84,5.29-90.17ZM287.82,135.52c12.69-53.5,69.58-80.19,118.08-51.95,3.57,2.08,6.76,4.78,10.32,6.86l-17.52,3.52c-38.64,12.86-77.66,32.77-101.63,66.78l-11.5,19.22c-.72-15.03-1.25-29.66,2.26-44.44ZM409.21,369.67c-20.98,23.82-60.82,25.07-84.13,3.78-.47-.43-1.03-.44-.81-1.36,9.08-2.98,17.65-7.51,26.14-11.85,15.41-7.86,31.91-16.54,46.77-25.33,11.74-6.95,22.68-14.33,32.09-24.28-3.43,20.42-5.86,42.9-20.07,59.05ZM510.26,208.43c-.15.6-1.82,6.95-2.57,6.38-5.3-10.21-12.56-19.89-19.86-28.78-27.51-33.52-67.27-64.22-112.75-44.29l30.47,10.9c45.71,17.86,93.45,64.43,98.74,115.17,4.05,38.84-22.13,77.49-60.73,85.42-.71.03,2.23-11.07,2.42-12.1,2.49-12.81,4.13-25.26,7.53-37.96,5.03-18.83,14.2-37.43,15.44-57.15,1.43-22.6-6.3-43.52-22.99-58.79.66,6.42,2.35,12.74,3.09,19.17,4.58,39.95-5.91,75.85-40.93,97.85-16.86,10.59-35.25,18.77-52.91,27.91-25.09,12.99-41.96,26.38-72.59,20.34-43.21-8.52-70.41-52.93-60.73-95.58,12.65,15.44,29.9,27.98,47.04,38.14,26.28,15.58,57.15,27.12,88.23,22.35l-13.87-5.23c-6.2-2.85-11.92-6.09-17.32-10.27-3.16-2.45-8.19-8.11-11.14-9.67-2.51-1.33-6.22-1.99-8.96-3.14-26.58-11.15-60.54-32.36-75.71-57.38-22.32-36.81-12.61-84.55,25.04-106.51,3.67-2.14,10.62-5.7,14.64-6.66.7-.17.83-.04.66.66-.47,1.97-1.75,4.32-2.36,6.36-10.16,33.94-5.64,73.2,4.57,106.68,5.26,17.25,14.06,34.33,28.55,45.49l-4.53-9.02c-28.67-66.91,31.87-120.84,87.2-145.44,28.02-12.46,58.24-15.1,86.32-.97,30.9,15.56,48.21,52.23,40,86.15Z"/>
  <path class="st1" d="M397.19,334.91c-14.86,8.8-31.36,17.47-46.77,25.33-8.5,4.34-17.06,8.87-26.14,11.85-.22.92.34.93.81,1.36,23.3,21.29,63.15,20.05,84.13-3.78,14.22-16.15,16.65-38.63,20.07-59.05-9.42,9.96-20.36,17.33-32.09,24.28Z"/>
  <path class="st5" d="M363.95,180.44h-17.91c4.54,9.26,15.36,12.34,17.91,0Z"/>
  <path class="st4" d="M297.06,160.73c23.97-34.02,62.99-53.92,101.63-66.78l17.52-3.52c-3.56-2.08-6.75-4.79-10.32-6.86-48.51-28.24-105.39-1.55-118.08,51.95-3.51,14.78-2.97,29.41-2.26,44.44l11.5-19.22Z"/>
  <path class="st0" d="M470.27,122.28c-28.08-14.14-58.3-11.49-86.32.97-55.33,24.61-115.86,78.54-87.2,145.44l4.53,9.02c-14.49-11.17-23.3-28.24-28.55-45.49-10.21-33.48-14.73-72.74-4.57-106.68.61-2.03,1.89-4.38,2.36-6.36.17-.7.04-.83-.66-.66-4.01.97-10.97,4.52-14.64,6.66-37.66,21.97-47.37,69.71-25.04,106.51,15.17,25.02,49.13,46.23,75.71,57.38,2.74,1.15,6.45,1.81,8.96,3.14,2.95,1.56,7.97,7.23,11.14,9.67,5.4,4.18,11.12,7.42,17.32,10.27l13.87,5.23c-31.08,4.77-61.95-6.77-88.23-22.35-17.14-10.16-34.39-22.7-47.04-38.14-9.67,42.65,17.53,87.06,60.73,95.58,30.63,6.04,47.5-7.35,72.59-20.34,17.66-9.14,36.05-17.32,52.91-27.91,35.01-21.99,45.5-57.9,40.93-97.85-.74-6.43-2.43-12.75-3.09-19.17,16.68,15.27,24.41,36.19,22.99,58.79-1.24,19.72-10.41,38.32-15.44,57.15-3.4,12.7-5.04,25.16-7.53,37.96-.2,1.02-3.13,12.12-2.42,12.1,38.59-7.93,64.78-46.58,60.73-85.42-5.29-50.74-53.03-97.3-98.74-115.17l-30.47-10.9c45.48-19.93,85.23,10.77,112.75,44.29,7.3,8.89,14.56,18.57,19.86,28.78.75.58,2.43-5.77,2.57-6.38,8.22-33.91-9.1-70.59-40-86.15ZM398.8,165.44c-.36,3.69-2.51,6.74-4.28,9.83,13.44,16.76,23.12,36.85,27.75,57.92,3.16,14.38,4.55,30.03-.74,44.05-12.02-4.73-22.1-14.51-26.97-26.5l-2.06-6.89c-.89,17.7,10.95,33.04,26.61,39.92l-7.48,9.24c-17.43-3.11-36.46-13.45-44.49-29.87-3.15-6.44-3.84-12.35-3.2-19.53.19-2.07,1.15-4.05,1.2-6.05-7.67,12.02-5.47,27.24,2.74,38.39,8.92,12.1,23.43,18.59,37.66,22.11l-12.38,6.75c-23.52-3.71-54.5-24.13-52.46-51.03l3.62-14.28c-24.32,31.61,9.8,62.63,39.92,69.69l-11.24,4.48c-6.06,1.78-7.33,2.25-13.28-.04-29.95-11.5-61.36-41.24-42.99-75.59,5.81-10.87,14.78-16.76,25.73-21.7,1.33-.6,6.01-1.9,6.47-2.24,1.51-1.09-1.37-7.59-2.68-8.96-6.24-6.49-21.48-6.44-29.04-2.44-2.43,1.28-4.15,3.5-6.52,4.85-2.8-9.25,1.25-20.23,10.05-24.54,4.63-2.27,9.14-2.17,14.14-1.59-.78-7.03,3.23-12.13,9.77-14.18,1.31-.41,7.31-1.79,8.37-1.79h45.73Z"/>
  <path class="st1" d="M365.21,29.91c-110.71,0-200.46,89.75-200.46,200.46s89.75,200.46,200.46,200.46,200.46-89.75,200.46-200.46S475.92,29.91,365.21,29.91ZM431.8,376.54c-31.3,46.34-100.29,44.03-132.71.16-3.19-1.24-6.62-.41-9.9-.75-70.21-7.21-108.21-78.67-83.55-143-28.2-60.04,10.52-132.49,76.91-139.24,37.76-57.99,126.63-57.64,165.12-.62,34.22,3.77,64.07,26.29,78.01,57.5,12.65,28.33,11.19,63.68-5.29,90.17,22.5,63.04-20.46,133.35-88.59,135.78Z"/>
</svg>