<?xml version="1.0" encoding="UTF-8"?>
<svg id="Capa_1" xmlns="http://www.w3.org/2000/svg" version="1.1" viewBox="0 0 80 80">
  <!-- Generator: Adobe Illustrator 29.6.1, SVG Export Plug-In . SVG Version: 2.1.1 Build 9)  -->
  <defs>
    <style>
      .st0 {
        fill: #fff;
      }
    </style>
  </defs>
  <path class="st0" d="M37.27,63.97c-1.57.8-3.15,1.64-4.83,2.19-.04.17.06.17.15.25,4.3,3.93,11.66,3.7,15.53-.7,2.62-2.98,3.07-7.13,3.7-10.9-1.74,1.84-3.76,3.2-5.92,4.48-2.74,1.62-5.79,3.22-8.63,4.68Z"/>
  <path class="st0" d="M39.77,30.79h-3.31c.84,1.71,2.83,2.28,3.31,0Z"/>
  <path class="st0" d="M27.42,27.15c4.42-6.28,11.63-9.95,18.76-12.33l3.23-.65c-.66-.38-1.25-.88-1.9-1.27-8.95-5.21-19.45-.29-21.8,9.59-.65,2.73-.55,5.43-.42,8.2l2.12-3.55Z"/>
  <path class="st0" d="M59.39,20.05c-5.18-2.61-10.76-2.12-15.93.18-10.21,4.54-21.39,14.5-16.1,26.85l.84,1.66c-2.67-2.06-4.3-5.21-5.27-8.4-1.88-6.18-2.72-13.43-.84-19.69.11-.38.35-.81.44-1.17.03-.13,0-.15-.12-.12-.74.18-2.02.83-2.7,1.23-6.95,4.05-8.74,12.87-4.62,19.66,2.8,4.62,9.07,8.53,13.97,10.59.51.21,1.19.33,1.65.58.54.29,1.47,1.33,2.06,1.79,1,.77,2.05,1.37,3.2,1.9l2.56.97c-5.74.88-11.43-1.25-16.28-4.13-3.16-1.88-6.35-4.19-8.68-7.04-1.79,7.87,3.23,16.07,11.21,17.64,5.65,1.12,8.77-1.36,13.4-3.75,3.26-1.69,6.65-3.2,9.77-5.15,6.46-4.06,8.4-10.69,7.55-18.06-.14-1.19-.45-2.35-.57-3.54,3.08,2.82,4.51,6.68,4.24,10.85-.23,3.64-1.92,7.07-2.85,10.55-.63,2.34-.93,4.64-1.39,7.01-.04.19-.58,2.24-.45,2.23,7.12-1.46,11.96-8.6,11.21-15.77-.98-9.36-9.79-17.96-18.22-21.26l-5.62-2.01c8.39-3.68,15.73,1.99,20.81,8.17,1.35,1.64,2.69,3.43,3.67,5.31.14.11.45-1.07.47-1.18,1.52-6.26-1.68-13.03-7.38-15.9ZM46.2,28.02c-.07.68-.46,1.24-.79,1.82,2.48,3.09,4.27,6.8,5.12,10.69.58,2.65.84,5.54-.14,8.13-2.22-.87-4.08-2.68-4.98-4.89l-.38-1.27c-.16,3.27,2.02,6.1,4.91,7.37l-1.38,1.71c-3.22-.57-6.73-2.48-8.21-5.51-.58-1.19-.71-2.28-.59-3.61.03-.38.21-.75.22-1.12-1.42,2.22-1.01,5.03.51,7.09,1.65,2.23,4.32,3.43,6.95,4.08l-2.28,1.25c-4.34-.69-10.06-4.45-9.68-9.42l.67-2.64c-4.49,5.83,1.81,11.56,7.37,12.86l-2.07.83c-1.12.33-1.35.41-2.45,0-5.53-2.12-11.33-7.61-7.94-13.95,1.07-2.01,2.73-3.09,4.75-4.01.25-.11,1.11-.35,1.19-.41.28-.2-.25-1.4-.49-1.65-1.15-1.2-3.96-1.19-5.36-.45-.45.24-.77.65-1.2.9-.52-1.71.23-3.73,1.86-4.53.85-.42,1.69-.4,2.61-.29-.14-1.3.6-2.24,1.8-2.62.24-.08,1.35-.33,1.55-.33h8.44Z"/>
  <path class="st0" d="M40,3C19.57,3,3,19.57,3,40s16.57,37,37,37,37-16.57,37-37S60.43,3,40,3ZM52.29,66.98c-5.78,8.55-18.51,8.13-24.5.03-.59-.23-1.22-.08-1.83-.14-12.96-1.33-19.97-14.52-15.42-26.4-5.2-11.08,1.94-24.45,14.2-25.7,6.97-10.7,23.37-10.64,30.48-.11,6.32.69,11.83,4.85,14.4,10.61,2.33,5.23,2.07,11.75-.98,16.64,4.15,11.64-3.78,24.61-16.35,25.06Z"/>
</svg>
